<?xml version="1.0" standalone="no"?>
<!DOCTYPE svg PUBLIC "-//W3C//DTD SVG 20010904//EN"
 "http://www.w3.org/TR/2001/REC-SVG-20010904/DTD/svg10.dtd">
<svg version="1.0" xmlns="http://www.w3.org/2000/svg"
 width="400.000000pt" height="400.000000pt" viewBox="0 0 400.000000 400.000000"
 preserveAspectRatio="xMidYMid meet">

<g transform="translate(0.000000,400.000000) scale(0.100000,-0.100000)"
fill="#000000" stroke="none">
<path d="M2865 3695 c-462 -67 -879 -128 -927 -135 l-88 -12 0 -704 0 -704
960 0 960 0 0 840 0 840 -32 -1 c-18 -1 -411 -56 -873 -124z"/>
<path d="M868 3412 l-698 -96 0 -588 0 -588 720 0 720 0 0 685 0 685 -22 -1
c-13 -1 -337 -44 -720 -97z"/>
<path d="M170 1315 c0 -498 2 -595 14 -595 7 0 327 -43 709 -95 383 -52 701
-95 706 -95 8 0 11 212 11 690 l0 690 -720 0 -720 0 0 -595z"/>
<path d="M1850 1203 l0 -708 948 -133 c521 -73 953 -133 960 -132 9 0 12 175
12 840 l0 840 -960 0 -960 0 0 -707z"/>
</g>
</svg>
